HIERARCHY
ROOT Hips
{
	OFFSET 0.00000 0.00000 0.00000
	CHANNELS 6 Xposition Yposition Zposition Zrotation Yrotation Xrotation 
	JOINT LHipJoint
	{
		OFFSET 0 0 0
		CHANNELS 3 Zrotation Yrotation Xrotation
		JOINT LeftUpLeg
		{
			OFFSET 1.30186 -1.90722 0.65024
			CHANNELS 3 Zrotation Yrotation Xrotation
			JOINT LeftLeg
			{
				OFFSET 2.56413 -7.04489 0.00000
				CHANNELS 3 Zrotation Yrotation Xrotation
				JOINT LeftFoot
				{
					OFFSET 2.79321 -7.67428 0.00000
					CHANNELS 3 Zrotation Yrotation Xrotation
					JOINT LeftToeBase
					{
						OFFSET 0.15723 -0.43198 2.08537
						CHANNELS 3 Zrotation Yrotation Xrotation
						End Site
						{
							OFFSET 0.00000 -0.00000 1.07411
						}
					}
				}
			}
		}
	}
	JOINT RHipJoint
	{
		OFFSET 0 0 0
		CHANNELS 3 Zrotation Yrotation Xrotation
		JOINT RightUpLeg
		{
			OFFSET -1.28627 -1.90723 0.65024
			CHANNELS 3 Zrotation Yrotation Xrotation
			JOINT RightLeg
			{
				OFFSET -2.56567 -7.04913 0.00000
				CHANNELS 3 Zrotation Yrotation Xrotation
				JOINT RightFoot
				{
					OFFSET -2.75597 -7.57198 0.00000
					CHANNELS 3 Zrotation Yrotation Xrotation
					JOINT RightToeBase
					{
						OFFSET -0.17500 -0.48081 2.22901
						CHANNELS 3 Zrotation Yrotation Xrotation
						End Site
						{
							OFFSET -0.00000 -0.00000 1.14762
						}
					}
				}
			}
		}
	}
	JOINT LowerBack
	{
		OFFSET 0 0 0
		CHANNELS 3 Zrotation Yrotation Xrotation
		JOINT Spine
		{
			OFFSET -0.04522 2.07467 -0.16566
			CHANNELS 3 Zrotation Yrotation Xrotation
			JOINT Spine1
			{
				OFFSET -0.01178 2.08825 -0.05393
				CHANNELS 3 Zrotation Yrotation Xrotation
				JOINT Neck
				{
					OFFSET 0 0 0
					CHANNELS 3 Zrotation Yrotation Xrotation
					JOINT Neck1
					{
						OFFSET -0.05182 1.80489 0.16014
						CHANNELS 3 Zrotation Yrotation Xrotation
						JOINT Head
						{
							OFFSET 0.14739 1.78840 -0.33342
							CHANNELS 3 Zrotation Yrotation Xrotation
							End Site
							{
								OFFSET 0.04364 1.83899 -0.13460
							}
						}
					}
				}
				JOINT LeftShoulder
				{
					OFFSET 0 0 0
					CHANNELS 3 Zrotation Yrotation Xrotation
					JOINT LeftArm
					{
						OFFSET 3.01264 1.29090 -0.06579
						CHANNELS 3 Zrotation Yrotation Xrotation
						JOINT LeftForeArm
						{
							OFFSET 5.55680 -0.00000 0.00000
							CHANNELS 3 Zrotation Yrotation Xrotation
							JOINT LeftHand
							{
								OFFSET 3.63979 -0.00000 -0.00000
								CHANNELS 3 Zrotation Yrotation Xrotation
								JOINT LeftFingerBase
								{
									OFFSET 0 0 0
									CHANNELS 3 Zrotation Yrotation Xrotation
									JOINT LeftHandIndex1
									{
										OFFSET 0.56942 -0.00000 -0.00000
										CHANNELS 3 Zrotation Yrotation Xrotation
										End Site
										{
											OFFSET 0.45908 -0.00000 -0.00000
										}
									}
								}
								JOINT LThumb
								{
									OFFSET 0 0 0
									CHANNELS 3 Zrotation Yrotation Xrotation
									End Site
									{
										OFFSET 0.46609 -0.00000 0.46609
									}
								}
							}
						}
					}
				}
				JOINT RightShoulder
				{
					OFFSET 0 0 0
					CHANNELS 3 Zrotation Yrotation Xrotation
					JOINT RightArm
					{
						OFFSET -3.15796 1.37283 -0.36748
						CHANNELS 3 Zrotation Yrotation Xrotation
						JOINT RightForeArm
						{
							OFFSET -5.34339 -0.00000 0.00000
							CHANNELS 3 Zrotation Yrotation Xrotation
							JOINT RightHand
							{
								OFFSET -3.65101 -0.00000 -0.00000
								CHANNELS 3 Zrotation Yrotation Xrotation
								JOINT RightFingerBase
								{
									OFFSET 0 0 0
									CHANNELS 3 Zrotation Yrotation Xrotation
									JOINT RightHandIndex1
									{
										OFFSET -0.69425 -0.00000 -0.00000
										CHANNELS 3 Zrotation Yrotation Xrotation
										End Site
										{
											OFFSET -0.55972 -0.00000 -0.00000
										}
									}
								}
								JOINT RThumb
								{
									OFFSET 0 0 0
									CHANNELS 3 Zrotation Yrotation Xrotation
									End Site
									{
										OFFSET -0.56827 -0.00000 0.56827
									}
								}
							}
						}
					}
				}
			}
		}
	}
}
MOTION
Frames: 10
Frame Time: 0.0166666
9.4769 18.414 -13.4598 0 0 0 0 0 0 -21 0 0 0 0 0 0 0 0 0 0 0 0 0 0 21 0 0 0 0 0 0 0 0 0 0 0 0 0 0 0 0 0 0 0 0 0 0 -16 0 0 21 0 0 11 0 0 0 -8 0 0 0 0 0 0 0 0 0 0 0 0 0 0 0 0 0 0 0 0 8 0 0 0 0 0 0 0 0 0 0 0 0 0 0 0 0 0
10.1322 18.3748 -13.5554 0.7544 -10.0992 -2.3921 0.0000 0.0000 0.0000 -15.6280 -0.9516 3.8821 0.4038 4.0798 11.3012 0.4907 5.5127 -16.3985 0.1324 -2.3456 -6.4618 0.0000 0.0000 0.0000 15.5558 16.7689 -0.6673 -0.5039 -4.5504 12.6306 0.1302 -7.1423 -6.0255 -0.0314 -1.1439 3.1448 -6.9974 -1.3094 1.3004 -1.9148 -1.8942 -0.4897 1.9836 -0.9036 -1.0751 -3.6425 -2.8291 -11.9850 2.5994 -3.9027 24.2911 1.0502 -1.8881 9.7897 0.0000 -0.0000 0.0000 -91.2472 -15.0099 38.1603 59.2622 -56.1101 -33.7279 -0.0000 0.0000 -24.7402 33.1284 16.0763 10.2437 -7.1250 0.0000 -0.0000 5.3120 48.8965 0.5118 0.0000 -0.0000 0.0000 46.6750 19.5252 20.8630 -109.6782 58.4851 -76.9552 0.0000 0.0000 21.4177 -36.0502 42.2988 -26.0985 7.1250 -0.0000 -0.0000 0.5485 18.3951 0.6936
10.1497 18.3685 -13.5326 1.9556 -10.2628 -3.1053 0.0000 0.0000 0.0000 -17.1004 -0.7931 4.5488 0.3994 4.0577 11.2389 0.4661 5.9307 -16.4270 0.1997 -2.8773 -7.9374 0.0000 0.0000 0.0000 14.2360 15.8914 -0.3433 -0.5031 -4.5468 12.6204 0.0839 -6.1973 -5.9654 -0.0477 -1.4096 3.8766 -8.4197 -1.4254 0.9473 -2.4477 -2.0121 -0.0705 2.2057 -0.9889 -0.4051 -3.3645 -2.6976 -12.3923 2.9087 -3.8553 24.4777 1.1120 -1.8024 9.9324 0.0000 0.0000 0.0000 -91.0413 -15.6610 40.2661 56.2679 -55.2305 -31.2549 -0.0000 0.0000 -24.0102 32.5699 17.1462 10.6651 -7.1250 0.0000 -0.0000 4.6703 50.0298 0.5802 0.0000 0.0000 0.0000 43.2077 21.0131 18.4749 -108.9626 58.5967 -76.3447 0.0000 0.0000 20.8401 -33.5470 44.4574 -24.9100 7.1250 -0.0000 -0.0000 2.4167 19.6396 3.0905
10.1778 18.3647 -13.5624 1.2931 -11.0831 -3.0771 0.0000 0.0000 0.0000 -16.5031 -0.7566 4.4242 0.4219 4.1689 11.5522 0.4735 6.4057 -16.9086 0.2207 -3.0241 -8.3458 0.0000 0.0000 0.0000 14.8951 15.9336 -0.4456 -0.4838 -4.4604 12.3757 0.0674 -5.6004 -5.4459 -0.0269 -1.0596 2.9127 -7.9366 -1.5549 1.1800 -2.5071 -2.2309 -0.4589 1.8936 -1.0727 -0.9370 -2.9050 -2.3819 -11.2841 3.0888 -3.6062 24.6037 1.1398 -1.6421 9.7490 -0.0000 -0.0000 0.0000 -90.6993 -15.8247 42.0876 52.1120 -53.8126 -27.8699 -0.0000 0.0000 -22.2954 31.9028 16.8312 10.2179 -7.1250 0.0000 -0.0000 4.0237 49.5504 0.4521 -0.0000 -0.0000 0.0000 40.4261 21.8124 17.1736 -107.4439 58.8184 -75.0469 0.0000 0.0000 21.0024 -34.9438 45.1129 -26.3382 7.1250 -0.0000 -0.0000 1.9887 20.7635 2.5657
10.1979 18.3520 -13.5679 0.9298 -11.6089 -3.6249 0.0000 0.0000 0.0000 -16.1808 -0.3475 4.9551 0.4326 4.2210 11.6993 0.4760 6.5788 -17.0837 0.2185 -3.0093 -8.3045 0.0000 0.0000 0.0000 15.3815 15.4554 0.0606 -0.4698 -4.3962 12.1941 0.0506 -5.0004 -5.0334 -0.0172 -0.8473 2.3287 -7.9748 -1.4802 1.5358 -2.4728 -2.1513 -0.1819 1.9552 -1.0420 -0.8545 -2.3734 -2.4412 -12.3785 2.7915 -3.7468 25.5393 0.9169 -1.6755 10.2857 -0.0000 -0.0000 0.0000 -90.2223 -16.3466 45.1183 50.0808 -53.0280 -26.2387 -0.0000 0.0000 -21.5292 31.8322 17.9257 10.8173 -7.1250 0.0000 -0.0000 3.8417 50.7850 0.5483 -0.0000 -0.0000 0.0000 37.0481 22.6707 14.5854 -103.9641 59.2502 -72.0628 0.0000 0.0000 20.7983 -36.2524 45.5324 -27.6236 7.1250 -0.0000 -0.0000 1.5382 21.6409 1.9975
10.1866 18.3408 -13.5464 1.2054 -12.3394 -4.0850 0.0000 0.0000 0.0000 -16.3596 0.4164 5.5979 0.4177 4.1486 11.4951 0.5294 6.2567 -17.4439 0.1758 -2.7007 -7.4464 0.0000 0.0000 0.0000 15.4077 15.9378 0.6106 -0.4888 -4.4829 12.4393 0.0538 -5.0902 -5.0512 -0.0195 -0.9022 2.4797 -9.1125 -1.9135 1.2584 -2.3473 -2.7253 -0.3437 2.7109 -1.3209 -0.7565 -2.6947 -1.9096 -11.7756 3.1704 -3.0784 26.3749 1.1980 -1.3665 10.4643 -0.0000 -0.0000 0.0000 -90.8579 -16.1956 46.3625 46.8553 -51.6457 -23.6849 -0.0000 0.0000 -19.3507 32.2166 16.9399 10.4038 -7.1250 0.0000 -0.0000 4.3303 49.7301 0.5058 -0.0000 -0.0000 0.0000 34.1595 24.2314 13.9197 -99.0457 59.6885 -67.8256 0.0000 0.0000 19.9339 -39.3424 44.9643 -30.0825 7.1250 -0.0000 -0.0000 -0.0633 22.2684 -0.0826
10.2250 18.3350 -13.5657 0.6274 -12.9780 -3.6990 0.0000 0.0000 0.0000 -15.8872 0.4653 4.9766 0.4432 4.2716 11.8420 0.5038 6.7221 -17.5301 0.1732 -2.6810 -7.3917 0.0000 0.0000 0.0000 15.7522 15.7577 -0.2501 -0.5046 -4.5539 12.6404 0.0248 -4.0613 -4.6175 -0.0218 -0.9536 2.6213 -8.7098 -2.0110 0.8820 -2.4378 -2.8107 -0.4042 2.3825 -1.3696 -0.6211 -2.1178 -1.7955 -12.3080 3.2521 -3.1284 27.6534 1.1240 -1.3155 11.0409 -0.0000 -0.0000 0.0000 -90.2831 -16.7787 49.5054 44.5228 -50.5326 -21.8698 -0.0000 0.0000 -18.4891 32.7293 16.0832 10.0958 -7.1250 0.0000 -0.0000 4.9126 48.8358 0.4658 -0.0000 -0.0000 0.0000 31.8776 25.5566 11.5263 -92.0076 59.9848 -61.7385 0.0000 0.0000 19.3035 -37.9438 43.1685 -28.0769 7.1250 -0.0000 -0.0000 -0.0583 19.9659 -0.0747
10.2725 18.3336 -13.5908 1.0583 -13.5539 -3.8964 0.0000 0.0000 0.0000 -16.6131 0.2194 4.6837 0.5075 4.5664 12.6759 0.5363 7.0439 -18.1707 0.1129 -2.1668 -5.9668 0.0000 0.0000 0.0000 15.0516 14.9963 -0.8036 -0.5110 -4.5819 12.7198 -0.0033 -2.7264 -4.0865 -0.0257 -1.0349 2.8447 -9.2478 -2.0170 1.0970 -2.7756 -2.8611 -0.4687 2.3401 -1.3846 -0.7965 -1.3048 -1.8651 -13.1384 2.6928 -3.3485 29.4024 0.7473 -1.3835 11.8681 -0.0000 -0.0000 0.0000 -90.4201 -17.4491 52.6772 42.0680 -49.2485 -19.9920 -0.0000 0.0000 -16.4687 31.6724 16.2164 9.7756 -7.1250 0.0000 -0.0000 3.8489 48.8086 0.3620 -0.0000 -0.0000 0.0000 29.8105 26.8572 9.3123 -83.4077 59.8351 -54.2941 0.0000 0.0000 18.9483 -35.9823 42.2465 -26.0194 7.1250 -0.0000 -0.0000 0.5642 18.3183 0.7130
10.3106 18.3306 -13.6078 0.9994 -14.1964 -3.9191 0.0000 0.0000 0.0000 -16.6703 0.3924 4.3458 0.5537 4.7665 13.2438 0.5742 7.0998 -18.6346 0.1188 -2.2222 -6.1200 0.0000 0.0000 0.0000 15.0206 14.9330 -1.0942 -0.5168 -4.6075 12.7924 -0.0127 -2.0601 -3.8038 -0.0265 -1.0513 2.8900 -9.4122 -2.0281 0.8638 -2.9537 -2.8547 -0.5051 2.2377 -1.3840 -0.7055 -1.4363 -2.0238 -12.8142 3.2755 -3.7873 30.2499 0.9314 -1.5273 12.1678 0.0000 -0.0000 0.0000 -90.4424 -17.9250 55.8712 40.4250 -48.3197 -18.7561 -0.0000 0.0000 -14.8127 30.4520 16.4656 9.4608 -7.1250 0.0000 -0.0000 2.6123 48.8868 0.2506 0.0000 -0.0000 0.0000 27.9136 28.0512 7.2213 -74.4179 59.0624 -46.5480 0.0000 0.0000 18.4665 -34.2940 42.4209 -24.7052 7.1250 -0.0000 -0.0000 1.4257 17.8909 1.7951
10.3489 18.3208 -13.6155 0.6156 -14.8353 -4.3181 0.0000 0.0000 0.0000 -16.3974 0.6470 4.4376 0.6204 5.0407 14.0246 0.6285 6.9943 -19.1284 0.1065 -2.1044 -5.7944 0.0000 0.0000 0.0000 15.5211 15.1464 -0.4489 -0.4950 -4.5109 12.5186 -0.0126 -1.8951 -3.6154 -0.0063 -0.5137 1.4117 -9.1019 -1.9622 1.3382 -3.1961 -2.8164 -0.3853 1.8340 -1.3646 -0.8785 -1.0165 -2.1631 -13.4923 3.4108 -4.2376 31.5906 0.8421 -1.6461 12.8714 0.0000 -0.0000 0.0000 -90.2079 -18.8299 59.1563 38.6021 -47.2195 -17.4062 -0.0000 0.0000 -12.7494 30.6885 16.3936 9.5089 -7.1250 0.0000 -0.0000 2.8546 48.8449 0.2709 0.0000 -0.0000 0.0000 26.7859 29.3652 5.2594 -65.3551 57.5758 -38.8306 0.0000 0.0000 18.4024 -33.6574 42.0448 -24.0332 7.1250 -0.0000 -0.0000 1.6170 17.2976 2.0254
